<?xml version="1.0" standalone="no"?><!DOCTYPE svg PUBLIC "-//W3C//DTD SVG 1.1//EN" "http://www.w3.org/Graphics/SVG/1.1/DTD/svg11.dtd"><svg t="1748956288070" class="icon" viewBox="0 0 1024 1024" version="1.1" xmlns="http://www.w3.org/2000/svg" p-id="1598" xmlns:xlink="http://www.w3.org/1999/xlink" width="200" height="200"><path d="M783.06 421.64v301.18h-60.24v120.48h60.24v120.46h-60.24V1024H301.18v-60.24h-60.24v-120.46h60.24v-120.48h-60.24V421.64h60.24v-120.46h60.24v-60.24h60.22V0h180.72v240.94h60.22v60.24h60.24v120.46z" p-id="1599"></path><path d="M602.36 843.3h60.22l30.126 30.11-30.126 30.11-30.11 30.12-240.94 0.008-30.11-30.128-30.12-30.11 30.12-30.11h60.22l-60.228-120.476-30.118-30.118 30.126-30.126 30.11-30.11h240.94l30.11 30.11 30.12 30.126-30.12 33.848zM451.764 391.53L421.64 361.42l-30.11-30.096 30.11-30.144 60.24-60.24V180.7L512 150.588l30.12 30.112v60.24l60.24 60.24 30.11 30.146-30.11 30.094-30.124 30.11z" fill="#CA671B" p-id="1600"></path><path d="M542.12 60.24v60.24L512 150.588 481.88 120.48V60.24zM662.58 421.64l30.126 30.12-0.006 120.476-30.12 30.124-30.11 30.11h-240.94L361.42 602.36l-30.126-30.124 0.006-120.472 30.12-30.124 30.11-30.11h240.94z" fill="#FF4C04" p-id="1601"></path><path d="M722.82 722.82h-60.24v-60.24l30.12-30.11 30.12 30.11zM662.58 903.52v-60.22h60.24v120.46H301.18v-120.46h60.24v60.22zM361.42 662.58v60.24h-60.24v-60.24l30.12-30.11z" fill="#EDAE80" p-id="1602"></path><path d="M602.36 722.82h60.22v120.48h-60.22zM361.42 722.82h60.22v120.48h-60.22zM662.58 301.18v60.24l-30.11 30.11-30.11-30.11v-60.24zM542.12 240.94h60.24v60.24h-60.24zM421.64 240.94h60.24v60.24h-60.24zM421.64 301.18v60.24l-30.11 30.11-30.11-30.11v-60.24z" fill="#EDAE80" p-id="1603"></path><path d="M722.82 421.64v180.72l-30.12 30.11-30.12-30.11v-180.72zM301.18 421.64h60.24v180.72l-30.12 34.932-30.12-34.932z" fill="#FFA07B" p-id="1604"></path><path d="M481.88 120.48h60.24v60.22h-60.24zM542.12 481.88h60.24v60.24h-60.24zM361.42 361.42h301.16v60.22H361.42zM421.64 481.88h60.24v60.24h-60.24zM301.18 602.36h421.64v60.22H301.18z" fill="#AD3200" p-id="1605"></path></svg>